<mxfile host="app.diagrams.net" agent="Mozilla/5.0 (Macintosh; Intel Mac OS X 10_15_7) AppleWebKit/537.36 (KHTML, like Gecko) Chrome/133.0.0.0 Safari/537.36" version="26.1.0">
  <diagram name="Page-1" id="5xsEcLwSreGiEfMcaj4P">
    <mxGraphModel dx="1204" dy="875" grid="1" gridSize="10" guides="1" tooltips="1" connect="1" arrows="1" fold="1" page="1" pageScale="1" pageWidth="850" pageHeight="1100" math="0" shadow="0">
      <root>
        <mxCell id="0" />
        <mxCell id="1" parent="0" />
        <mxCell id="3KdTUq22vsdp0HNcY4IM-1" value="User" style="shape=umlActor;verticalLabelPosition=bottom;verticalAlign=top;html=1;outlineConnect=0;" vertex="1" parent="1">
          <mxGeometry x="90" y="20" width="30" height="60" as="geometry" />
        </mxCell>
        <mxCell id="3KdTUq22vsdp0HNcY4IM-2" value="SearchScreen" style="shape=umlBoundary;whiteSpace=wrap;html=1;verticalAlign=top;fontSize=12;labelPosition=center;verticalLabelPosition=bottom;align=center;" vertex="1" parent="1">
          <mxGeometry x="240" y="20" width="70" height="60" as="geometry" />
        </mxCell>
        <mxCell id="3KdTUq22vsdp0HNcY4IM-3" value="SearchController" style="ellipse;shape=umlControl;whiteSpace=wrap;html=1;labelPosition=center;verticalLabelPosition=bottom;align=center;verticalAlign=top;" vertex="1" parent="1">
          <mxGeometry x="420" y="10" width="60" height="70" as="geometry" />
        </mxCell>
        <mxCell id="3KdTUq22vsdp0HNcY4IM-4" value="Multiple Databases" style="shape=cylinder3;html=1;boundedLbl=1;backgroundOutline=1;size=15;labelPosition=center;verticalLabelPosition=bottom;align=center;verticalAlign=top;" vertex="1" parent="1">
          <mxGeometry x="600" y="20.000000000000057" width="40" height="60" as="geometry" />
        </mxCell>
        <mxCell id="3KdTUq22vsdp0HNcY4IM-5" value="" style="endArrow=none;dashed=1;html=1;rounded=0;" edge="1" parent="1" source="3KdTUq22vsdp0HNcY4IM-11">
          <mxGeometry width="50" height="50" relative="1" as="geometry">
            <mxPoint x="100" y="940" as="sourcePoint" />
            <mxPoint x="100" y="110" as="targetPoint" />
          </mxGeometry>
        </mxCell>
        <mxCell id="3KdTUq22vsdp0HNcY4IM-6" value="" style="endArrow=none;dashed=1;html=1;rounded=0;" edge="1" parent="1" source="3KdTUq22vsdp0HNcY4IM-15">
          <mxGeometry width="50" height="50" relative="1" as="geometry">
            <mxPoint x="280" y="940" as="sourcePoint" />
            <mxPoint x="280" y="110" as="targetPoint" />
          </mxGeometry>
        </mxCell>
        <mxCell id="3KdTUq22vsdp0HNcY4IM-7" value="" style="endArrow=none;dashed=1;html=1;rounded=0;" edge="1" parent="1" source="3KdTUq22vsdp0HNcY4IM-19">
          <mxGeometry width="50" height="50" relative="1" as="geometry">
            <mxPoint x="450" y="940" as="sourcePoint" />
            <mxPoint x="450" y="110" as="targetPoint" />
          </mxGeometry>
        </mxCell>
        <mxCell id="3KdTUq22vsdp0HNcY4IM-8" value="" style="endArrow=none;dashed=1;html=1;rounded=0;" edge="1" parent="1">
          <mxGeometry width="50" height="50" relative="1" as="geometry">
            <mxPoint x="620" y="390" as="sourcePoint" />
            <mxPoint x="620" y="110" as="targetPoint" />
          </mxGeometry>
        </mxCell>
        <mxCell id="3KdTUq22vsdp0HNcY4IM-12" value="" style="endArrow=none;dashed=1;html=1;rounded=0;" edge="1" parent="1" target="3KdTUq22vsdp0HNcY4IM-11">
          <mxGeometry width="50" height="50" relative="1" as="geometry">
            <mxPoint x="100" y="390" as="sourcePoint" />
            <mxPoint x="100" y="110" as="targetPoint" />
          </mxGeometry>
        </mxCell>
        <mxCell id="3KdTUq22vsdp0HNcY4IM-11" value="" style="rounded=0;whiteSpace=wrap;html=1;" vertex="1" parent="1">
          <mxGeometry x="90" y="130" width="20" height="60" as="geometry" />
        </mxCell>
        <mxCell id="3KdTUq22vsdp0HNcY4IM-13" value="Enter search prompt" style="endArrow=classic;html=1;rounded=0;labelPosition=center;verticalLabelPosition=top;align=center;verticalAlign=bottom;" edge="1" parent="1">
          <mxGeometry width="50" height="50" relative="1" as="geometry">
            <mxPoint x="110" y="150" as="sourcePoint" />
            <mxPoint x="270" y="150" as="targetPoint" />
          </mxGeometry>
        </mxCell>
        <mxCell id="3KdTUq22vsdp0HNcY4IM-14" value="" style="endArrow=none;dashed=1;html=1;rounded=0;" edge="1" parent="1" target="3KdTUq22vsdp0HNcY4IM-15">
          <mxGeometry width="50" height="50" relative="1" as="geometry">
            <mxPoint x="280" y="389" as="sourcePoint" />
            <mxPoint x="280" y="110" as="targetPoint" />
          </mxGeometry>
        </mxCell>
        <mxCell id="3KdTUq22vsdp0HNcY4IM-15" value="" style="rounded=0;whiteSpace=wrap;html=1;" vertex="1" parent="1">
          <mxGeometry x="270" y="140" width="20" height="60" as="geometry" />
        </mxCell>
        <mxCell id="3KdTUq22vsdp0HNcY4IM-16" value="Send search query to&lt;div&gt;all databases&lt;/div&gt;" style="endArrow=classic;html=1;rounded=0;labelPosition=center;verticalLabelPosition=top;align=center;verticalAlign=bottom;" edge="1" parent="1">
          <mxGeometry width="50" height="50" relative="1" as="geometry">
            <mxPoint x="290" y="170" as="sourcePoint" />
            <mxPoint x="440" y="170" as="targetPoint" />
          </mxGeometry>
        </mxCell>
        <mxCell id="3KdTUq22vsdp0HNcY4IM-18" value="" style="endArrow=none;dashed=1;html=1;rounded=0;" edge="1" parent="1" target="3KdTUq22vsdp0HNcY4IM-19">
          <mxGeometry width="50" height="50" relative="1" as="geometry">
            <mxPoint x="450" y="390" as="sourcePoint" />
            <mxPoint x="450" y="110" as="targetPoint" />
          </mxGeometry>
        </mxCell>
        <mxCell id="3KdTUq22vsdp0HNcY4IM-19" value="" style="rounded=0;whiteSpace=wrap;html=1;" vertex="1" parent="1">
          <mxGeometry x="440" y="150" width="20" height="60" as="geometry" />
        </mxCell>
        <mxCell id="3KdTUq22vsdp0HNcY4IM-20" value="Query data" style="endArrow=classic;html=1;rounded=0;labelPosition=center;verticalLabelPosition=top;align=center;verticalAlign=bottom;" edge="1" parent="1">
          <mxGeometry width="50" height="50" relative="1" as="geometry">
            <mxPoint x="460" y="180" as="sourcePoint" />
            <mxPoint x="610" y="180" as="targetPoint" />
          </mxGeometry>
        </mxCell>
        <mxCell id="3KdTUq22vsdp0HNcY4IM-21" value="" style="rounded=0;whiteSpace=wrap;html=1;" vertex="1" parent="1">
          <mxGeometry x="610" y="170" width="20" height="110" as="geometry" />
        </mxCell>
        <mxCell id="3KdTUq22vsdp0HNcY4IM-22" value="Return data" style="endArrow=classic;html=1;rounded=0;dashed=1;labelPosition=center;verticalLabelPosition=top;align=center;verticalAlign=bottom;" edge="1" parent="1">
          <mxGeometry width="50" height="50" relative="1" as="geometry">
            <mxPoint x="610" y="260" as="sourcePoint" />
            <mxPoint x="460" y="260" as="targetPoint" />
          </mxGeometry>
        </mxCell>
        <mxCell id="3KdTUq22vsdp0HNcY4IM-23" value="" style="rounded=0;whiteSpace=wrap;html=1;" vertex="1" parent="1">
          <mxGeometry x="440" y="250" width="20" height="60" as="geometry" />
        </mxCell>
        <mxCell id="3KdTUq22vsdp0HNcY4IM-24" value="Convert data to search&lt;div&gt;result groups&lt;/div&gt;" style="endArrow=classic;html=1;rounded=0;dashed=1;labelPosition=center;verticalLabelPosition=top;align=center;verticalAlign=bottom;" edge="1" parent="1">
          <mxGeometry width="50" height="50" relative="1" as="geometry">
            <mxPoint x="440" y="280" as="sourcePoint" />
            <mxPoint x="290" y="280" as="targetPoint" />
          </mxGeometry>
        </mxCell>
        <mxCell id="3KdTUq22vsdp0HNcY4IM-25" value="" style="rounded=0;whiteSpace=wrap;html=1;" vertex="1" parent="1">
          <mxGeometry x="270" y="270" width="20" height="60" as="geometry" />
        </mxCell>
        <mxCell id="3KdTUq22vsdp0HNcY4IM-26" value="Show data as tabs,&amp;nbsp;&lt;div&gt;so user can&amp;nbsp;&lt;span style=&quot;background-color: light-dark(#ffffff, var(--ge-dark-color, #121212)); color: light-dark(rgb(0, 0, 0), rgb(255, 255, 255));&quot;&gt;navigate to&lt;/span&gt;&lt;/div&gt;&lt;div&gt;&lt;span style=&quot;background-color: light-dark(#ffffff, var(--ge-dark-color, #121212)); color: light-dark(rgb(0, 0, 0), rgb(255, 255, 255));&quot;&gt;view data in each group&lt;/span&gt;&lt;/div&gt;" style="endArrow=classic;html=1;rounded=0;dashed=1;labelPosition=center;verticalLabelPosition=top;align=center;verticalAlign=bottom;" edge="1" parent="1">
          <mxGeometry width="50" height="50" relative="1" as="geometry">
            <mxPoint x="270" y="300" as="sourcePoint" />
            <mxPoint x="110" y="300" as="targetPoint" />
            <mxPoint as="offset" />
          </mxGeometry>
        </mxCell>
        <mxCell id="3KdTUq22vsdp0HNcY4IM-27" value="" style="rounded=0;whiteSpace=wrap;html=1;" vertex="1" parent="1">
          <mxGeometry x="90" y="280" width="20" height="60" as="geometry" />
        </mxCell>
      </root>
    </mxGraphModel>
  </diagram>
</mxfile>
